<svg id="Layer" enable-background="new 0 0 64 64" height="512" viewBox="0 0 64 64" width="512" xmlns="http://www.w3.org/2000/svg"><path d="m32 10c8.84 0 16 7.16 16 16 0 5.06-2.34 9.56-6 12.49-2.74 2.2-6.22 3.51-10 3.51s-7.26-1.31-10-3.51c-3.66-2.93-6-7.43-6-12.49 0-8.84 7.16-16 16-16z" fill="#ff7043"/><path d="m42 38.49v14.51c0 .75-.8 1.23-1.47.88l-7.64-4.67c-.56-.28-1.22-.28-1.78 0l-7.64 4.67c-.67.35-1.47-.13-1.47-.88v-14.51c2.74 2.2 6.22 3.51 10 3.51s7.26-1.31 10-3.51z" fill="#4dd0e1"/><g fill="#012e52"><path d="m20 39.415v13.585c0 1.057.54 2.014 1.444 2.562.906.549 2.01.584 2.953.091.039-.021.077-.043.115-.066l7.488-4.577 7.487 4.576c.038.023.076.046.115.066.443.231.922.347 1.398.347.538 0 1.074-.146 1.555-.438.905-.547 1.445-1.504 1.445-2.561v-13.584c3.825-3.414 6-8.25 6-13.416 0-9.925-8.075-18-18-18s-18 8.075-18 18c0 5.166 2.176 10.001 6 13.415zm13.933 8.089c-.048-.029-.097-.057-.147-.082-1.117-.561-2.453-.561-3.57 0-.051.025-.1.053-.147.082l-6.069 3.708v-9.106c2.472 1.226 5.212 1.894 8 1.894s5.528-.668 8-1.894v9.106zm-1.933-35.504c7.72 0 14 6.28 14 14 0 4.274-1.913 8.258-5.252 10.931-2.501 2.007-5.526 3.069-8.748 3.069s-6.247-1.062-8.748-3.069c-.001-.001-.001-.001-.002-.002-3.337-2.671-5.25-6.655-5.25-10.929 0-7.72 6.28-14 14-14z"/><path d="m26.854 24.64c.905.632 2.153.411 2.785-.494l1.361-1.948v9.802c0 1.104.896 2 2 2s2-.896 2-2v-13c0-1.218-.728-2.307-1.854-2.773-1.128-.466-2.411-.21-3.27.649-.083.083-.158.173-.226.269l-3.29 4.71c-.632.905-.411 2.152.494 2.785z"/></g></svg>