<svg id="Layer" enable-background="new 0 0 64 64" height="512" viewBox="0 0 64 64" width="512" xmlns="http://www.w3.org/2000/svg"><path d="m32 10c8.84 0 16 7.17 16 16 0 5.06-2.34 9.56-6 12.49-2.74 2.2-6.22 3.51-10 3.51s-7.26-1.31-10-3.51c-3.66-2.93-6-7.43-6-12.49 0-8.83 7.16-16 16-16z" fill="#ff8a65"/><path d="m42 38.49v14.51c0 .75-.8 1.23-1.47.88l-7.64-4.67c-.56-.28-1.22-.28-1.78 0l-7.64 4.67c-.67.35-1.47-.13-1.47-.88v-14.51c2.74 2.2 6.22 3.51 10 3.51s7.26-1.31 10-3.51z" fill="#4dd0e1"/><g fill="#012e52"><path d="m32 8c-9.925 0-18 8.075-18 18 0 5.166 2.175 10.001 6 13.416v13.584c0 1.057.54 2.014 1.444 2.561.907.55 2.012.584 2.953.092.04-.021.078-.043.116-.066l7.487-4.577 7.487 4.576c.038.023.077.046.116.066.442.231.921.347 1.398.347.538 0 1.074-.146 1.555-.438.904-.547 1.444-1.504 1.444-2.561v-13.584c3.825-3.414 6-8.25 6-13.416 0-9.925-8.075-18-18-18zm1.933 39.504c-.048-.03-.098-.058-.148-.082-1.118-.561-2.452-.561-3.57 0-.05.024-.1.052-.148.082l-6.067 3.708v-9.106c2.472 1.226 5.212 1.894 8 1.894s5.528-.668 8-1.893v9.105zm6.815-10.573c-2.501 2.007-5.526 3.069-8.748 3.069s-6.247-1.062-8.748-3.069c0-.001-.001-.001-.002-.002-3.336-2.671-5.25-6.655-5.25-10.929 0-7.72 6.28-14 14-14s14 6.28 14 14c0 4.274-1.914 8.258-5.252 10.931z"/><path d="m33 16h-5c-1.104 0-2 .896-2 2s.896 2 2 2h5c.551 0 1 .448 1 1v1c0 .552-.449 1-1 1h-5c-1.104 0-2 .896-2 2s.896 2 2 2h5c.551 0 1 .448 1 1v1c0 .552-.449 1-1 1h-5c-1.104 0-2 .896-2 2s.896 2 2 2h5c2.757 0 5-2.243 5-5v-1c0-1.13-.391-2.162-1.026-3 .635-.838 1.026-1.87 1.026-3v-1c0-2.757-2.243-5-5-5z"/></g></svg>