<svg id="Capa_1" enable-background="new 0 0 512 512" height="512" viewBox="0 0 512 512" width="512" xmlns="http://www.w3.org/2000/svg"><g><path d="m326.675 145.458v236.76c0 2.209 1.791 4 4 4h159.825c2.209 0 4-1.791 4-4v-236.76c0-2.209-1.791-4-4-4h-159.825c-2.209 0-4 1.791-4 4z" fill="#8c818f"/><path d="m504.5 144.284v239.108c0 1.694-1.067 3.204-2.663 3.77l-87.811 31.132c-.747.269-1.503.394-2.25.394-3.546 0-6.676-2.872-6.676-6.697v-296.305c0-3.825 3.131-6.697 6.676-6.697.746 0 1.503.125 2.25.394l87.811 31.132c1.596.565 2.663 2.075 2.663 3.769z" fill="#d97b7b"/><path d="m369.528 290.206-62.558-54.651c-3.319-2.9-8.468-.196-7.965 4.183l2.784 24.251c.243 2.114-1.41 3.967-3.538 3.967h-41.153c-2.263 0-4.098 1.835-4.098 4.098v43.569c0 2.263 1.835 4.098 4.098 4.098h41.153c2.128 0 3.781 1.853 3.538 3.967l-2.784 24.251c-.503 4.378 4.646 7.082 7.965 4.183l62.558-54.651c2.2-1.922 2.2-5.343 0-7.265z" fill="#6fbbc6"/><path d="m301.789 303.529c.243-2.113-1.41-3.967-3.538-3.967h-41.153c-2.263 0-4.098-1.835-4.098-4.097v20.159c0 2.263 1.835 4.098 4.098 4.098h41.153c.594 0 1.143.156 1.632.41z" fill="#61aab8"/><path d="m362.148 283.758-55.178 48.204c-1.922 1.679-4.453 1.471-6.149.155l-1.816 15.822c-.503 4.378 4.646 7.082 7.965 4.183l62.558-54.651c2.2-1.922 2.2-5.343 0-7.265z" fill="#61aab8"/><path d="m196.865 392.657 1.756-69.199c.168-6.611-2.377-13.003-7.043-17.688l-53.881-54.108-18.163 42.068 44.604 36.536c2.182 1.787 3.421 4.479 3.359 7.299l-1.85 82.732c-.11 4.907 3.769 8.978 8.675 9.102l43.615 1.104c4.631.117 8.48-3.543 8.598-8.174l.124-4.919c.217-8.571-5.15-16.291-13.258-19.075z" fill="#80b6fc"/><path d="m123.057 296.615 30.756 25.193 18.899-34.985-33.751-33.892z" fill="#62a4fb"/><path d="m226.659 417.41-.124 4.919c-.124 4.629-3.969 8.287-8.598 8.174l-43.615-1.104c-4.907-.124-8.788-4.194-8.675-9.102l.642-28.547 30.576.908 16.536 5.678c8.103 2.782 13.475 10.506 13.258 19.074z" fill="#8c818f"/><path d="m59.281 224.524c-3.409.361-6.956-.531-9.898-2.772-6.114-4.659-7.291-13.393-2.632-19.506l35.723-46.875c5.229-6.853 15.145-8.304 22.11-3.237l50.399 36.644c6.217 4.521 7.592 13.225 3.072 19.443-4.522 6.215-13.226 7.591-19.442 3.072l-41.026-29.83-28.698 37.657c-2.417 3.172-5.932 5.015-9.608 5.404z" fill="#4980ac"/><path d="m79.755 204.864-10.866 14.255c-2.412 3.165-5.928 5.013-9.608 5.404-3.412.361-6.959-.535-9.898-2.772-6.114-4.66-7.292-13.393-2.632-19.506l11.581-15.197z" fill="#ffcdbe"/><path d="m172.63 90.53-37.712 103.614 28.468 12.656 12.91-35.471c.812-2.23 3.278-3.38 5.508-2.568l17.611 6.41c4.891 1.78 10.299-.742 12.079-5.632l20.846-57.275z" fill="#ffcdbe"/><path d="m112.542 255.622-18.891 51.892c-.942 2.588-3.803 3.922-6.391 2.98l-52.925-19.057c-4.621-1.682-9.731.7-11.413 5.321l-14.915 40.971c-1.584 4.353.663 9.167 5.016 10.751l4.684 1.708c8.027 2.921 17.021.321 22.249-6.433l10.771-13.914 51.792 18.641c5.87 2.136 12.419-.353 15.388-5.849l38.399-71.082z" fill="#80b6fc"/><path d="m61.615 301.261-10.887 28.58-10.771 13.914c-5.227 6.753-14.218 9.351-22.249 6.433l-4.684-1.708c-4.351-1.588-6.593-6.39-5.016-10.751l14.914-40.971c1.68-4.619 6.795-7.002 11.413-5.321z" fill="#8c818f"/><path d="m249.139 105.358-64.11-23.334c-4.537-1.651-9.553.688-11.204 5.225l-18.651 51.243 14.073 5.122c5.602 2.039 11.796-.849 13.835-6.452l5.726-15.732c.699-1.92 2.822-2.91 4.741-2.211l28.734 10.458c10.813 3.936 22.769-1.64 26.704-12.452l2.492-6.846c.741-2.033-.307-4.281-2.34-5.021z" fill="#8c818f"/><path d="m268.272 176.108c-6.324-4.022-14.745-2.066-19.061 4.061l-27.037 38.386-77.788-50.427-31.844 87.494 43.765 15.929 18.626-51.177 41.359 27.758c2.699 1.81 5.781 2.677 8.841 2.677 5.05 0 10.037-2.363 13.125-6.748l33.939-48.185c4.556-6.466 2.827-15.473-3.925-19.768z" fill="#5d91b9"/><path d="m272.197 195.876-9.843 13.979-22.011-17.094 9.093-12.918c4.433-6.278 13.114-7.784 19.393-3.361 6.289 4.423 7.791 13.115 3.368 19.394z" fill="#ffcdbe"/><g><path d="m504.343 133.45-87.771-31.117c-1.544-.558-3.157-.84-4.795-.84-7.817 0-14.177 6.369-14.177 14.197v18.274h-66.928c-6.341 0-11.5 5.159-11.5 11.5v20.85c0 4.143 3.357 7.5 7.5 7.5s7.5-3.357 7.5-7.5v-17.35h63.428v229.758h-63.428v-40.401l40.292-35.199c2.68-2.34 4.216-5.722 4.216-9.279.001-3.558-1.536-6.941-4.214-9.282l-40.293-35.199v-48.048c0-4.143-3.357-7.5-7.5-7.5s-7.5 3.357-7.5 7.5v34.944l-7.266-6.347c-3.863-3.377-9.293-4.017-13.837-1.631-4.542 2.385-7.099 7.22-6.514 12.316l2.279 19.862h-36.735c-6.395 0-11.598 5.203-11.598 11.598v43.569c0 6.395 5.203 11.599 11.598 11.599h36.735l-2.279 19.862c-.585 5.097 1.972 9.932 6.514 12.316 1.826.959 3.796 1.429 5.749 1.429 2.906 0 5.777-1.04 8.088-3.059l7.266-6.347v30.797c0 6.341 5.159 11.5 11.5 11.5h66.927v18.271c0 7.828 6.359 14.196 14.177 14.196 1.64 0 3.253-.282 4.756-.824l87.813-31.132c4.578-1.626 7.654-5.98 7.654-10.838v-239.106c0-4.861-3.077-9.216-7.657-10.839zm-197.096 208.475 1.995-17.377c.359-3.129-.636-6.272-2.732-8.624-2.097-2.352-5.105-3.7-8.256-3.7h-37.751v-36.765h37.751c3.15 0 6.159-1.349 8.256-3.7 2.097-2.352 3.092-5.495 2.732-8.622l-1.995-17.379 55.041 48.083zm189.753 38.998-84.4 29.922v-294.006l84.4 29.922z"/><path d="m435.869 282.266c4.143 0 7.5-3.357 7.5-7.5v-21.847c0-4.143-3.357-7.5-7.5-7.5s-7.5 3.357-7.5 7.5v21.847c0 4.142 3.358 7.5 7.5 7.5z"/><path d="m281.83 183.708c-1.146-5.8-4.532-10.745-9.531-13.925-9.659-6.143-22.491-3.474-29.216 6.071l-22.882 32.486-39.958-25.903 2.012-5.528 14.597 5.313c8.769 3.187 18.5-1.351 21.688-10.112l12.27-33.694c10.962-.543 21.178-7.495 25.228-18.621l2.492-6.847c2.152-5.915-.909-12.479-6.823-14.632l-64.11-23.334c-4.076-1.481-8.486-1.29-12.419.542-3.932 1.834-6.914 5.089-8.398 9.165l-29.405 80.803c-.01.025-.023.049-.032.075l-.322.884-28.026-20.383c-10.23-7.437-24.8-5.304-32.485 4.761l-35.717 46.877c-7.159 9.387-5.345 22.849 4.047 30.013 4.325 3.295 9.723 4.844 15.238 4.263 5.835-.619 11.222-3.647 14.784-8.312l24.255-31.827 22.666 16.481-34.315 94.273-50.561-18.205c-8.5-3.097-17.932 1.306-21.026 9.805l-14.912 40.97c-1.451 3.988-1.263 8.303.53 12.149s4.978 6.764 8.965 8.215c3.194.984 7.306 3.357 14.011 3.357 8.216 0 16.16-3.747 21.421-10.542l7.431-9.599 46.634 16.785c9.295 3.384 19.851-.629 24.552-9.332l14.492-26.826 20.398 16.708c.39.318.616.813.606 1.313l-1.85 82.738c-.203 9.006 6.961 16.527 15.979 16.766 0 0 43.896 1.105 44.037 1.105 4.09 0 7.959-1.545 10.933-4.375 6.387-6.077 4.652-13.351 5.056-16.025.306-11.894-7.056-22.49-18.324-26.367l-11.333-3.887.378-14.979c.104-4.142-3.167-7.583-7.309-7.687-.064-.001-.128-.002-.192-.002-4.055 0-7.391 3.234-7.494 7.31l-.327 12.947-15.603-.464 1.046-46.755c.109-5.163-2.12-9.995-6.106-13.25l-22.633-18.538 12.273-22.719 27.726 27.846c3.207 3.228 4.979 7.679 4.863 12.213l-.35 13.72c-.105 4.142 3.165 7.583 7.307 7.689.065.001.13.002.194.002 4.054 0 7.39-3.233 7.494-7.309l.35-13.718c.222-8.605-3.137-17.051-9.223-23.176l-31.588-31.724 13.399-36.815 33.408 22.422c3.85 2.583 8.352 3.948 13.018 3.948 7.68 0 14.878-3.712 19.257-9.929l33.937-48.184c3.353-4.762 4.63-10.772 3.498-16.49zm-86.322 216.416 15.455 5.3c5.042 1.735 8.339 6.476 8.202 11.79l-.13 4.94c-.005.238-.096.443-.27.609-.175.166-.39.264-.633.24l-43.61-1.1c-.773-.021-1.388-.664-1.371-1.435l.469-20.997zm68.742-217.683c3.109 1.976 3.93 6.119 1.816 9.12l-5.319 7.552-10.148-7.881 4.747-6.74c2.07-2.937 6.064-3.856 8.904-2.051zm-59.805-15.461c-.362.994-1.473 1.51-2.467 1.146l-17.616-6.412c-6.112-2.216-12.888.948-15.107 7.055l-1.927 5.296-13.845-8.975 6.178-16.98 7.024 2.557c9.498 3.456 20.004-1.472 23.448-10.933l4.426-12.161 21.4 7.789zm-23.57-77.16c.146-.4.429-.602.642-.701.212-.099.549-.187.95-.041l60.743 22.108-1.267 3.478c-2.524 6.936-10.178 10.49-17.091 7.971l-28.736-10.459c-5.802-2.115-12.241.893-14.352 6.693l-5.726 15.732c-.622 1.706-2.517 2.588-4.223 1.969l-7.025-2.557zm-126.942 125.97c-2.813-2.145-3.358-6.178-1.212-8.99l6.839-8.975 9.878 8.214-6.504 8.535c-2.173 2.845-6.21 3.345-9.001 1.216zm48.072-40.391c-3.295-2.397-7.905-1.723-10.376 1.52l-13.092 17.179-9.879-8.215 19.777-25.956c2.778-3.638 8.044-4.41 11.738-1.727l31.51 22.917-4.565 12.543zm-81.726 167.743-4.687-1.706c-.229-.083-.397-.237-.5-.459-.103-.221-.113-.449-.029-.679l14.911-40.97c.266-.728 1.074-1.105 1.825-.831l20.093 7.235-7.772 20.402-10.087 13.031c-3.247 4.193-8.775 5.789-13.754 3.977zm91.034-4.07c-1.191 2.206-3.867 3.226-6.249 2.356l-44.604-16.054 5.547-14.56 18.693 6.73c6.469 2.353 13.647-.994 16.002-7.462l16.325-44.845 28.556 10.394zm120.816-99.325c-2.608 3.702-7.882 4.694-11.654 2.161l-41.358-27.757c-1.916-1.286-4.314-1.619-6.506-.902-2.192.715-3.933 2.398-4.722 4.564l-16.061 44.129-29.669-10.799 26.057-71.593 69.882 45.302c3.383 2.194 7.891 1.32 10.211-1.974l13.643-19.369 10.148 7.881z"/></g></g></svg>